
<svg width="105" height="100" viewBox="0 0 105 100" fill="none" xmlns="http://www.w3.org/2000/svg">
<circle cx="55" cy="50" r="50" fill="#FEFAF4"/>
<circle cx="50" cy="50" r="49.5" stroke="#1d1ce5"/>
<path d="M52.4251 78.5991C53.1013 78.5558 53.7756 78.4888 54.4472 78.3957C60.3125 77.5855 65.7302 74.9053 69.9895 70.6455C74.7304 65.9046 77.5149 59.7288 77.9416 53.0979C78.0138 52 78.0198 50.8975 77.9598 49.7992C77.6819 44.6496 75.9781 39.7397 72.9884 35.5167C72.8265 35.2877 72.6603 35.0625 72.4923 34.8391C72.4854 34.8303 72.4784 34.821 72.4714 34.8116C69.3128 30.6333 65.0758 27.4752 60.1669 25.6527C59.5498 25.4242 58.8642 25.7383 58.6353 26.355C58.4063 26.9721 58.7209 27.6576 59.3375 27.8866C61.7013 28.7639 63.8942 29.9809 65.8623 31.4943L62.5353 34.8219C61.5514 35.8053 61.0102 37.1135 61.0102 38.5045V45.2057C61.0102 46.5959 61.5514 47.9036 62.5353 48.8884L66.9467 53.2999C67.4801 53.8323 67.7733 54.5411 67.7733 55.2959V57.5359C67.7733 58.9255 68.3145 60.2333 69.2983 61.2185L72.1186 64.0388C69.4035 68.5992 65.2787 72.2269 60.3484 74.3133L58.141 72.1064C57.3578 71.3231 56.3162 70.8917 55.2086 70.8917H51.8717C50.7641 70.8917 49.7225 71.3231 48.9393 72.1064C48.606 72.4396 48.1625 72.6234 47.6915 72.6234H45.7634C44.6558 72.6234 43.6142 73.0549 42.831 73.8381L41.9504 74.7186C41.2417 74.4543 40.5412 74.1583 39.852 73.8274C39.2586 73.5421 38.547 73.7925 38.2622 74.3854C37.9774 74.9788 38.2273 75.6904 38.8207 75.9752C41.6824 77.3495 44.707 78.1984 47.8428 78.5149C49.3637 78.6703 50.8995 78.6964 52.4251 78.5991ZM70.984 59.5343C70.4502 58.9995 70.1561 58.2898 70.1561 57.5359V55.2959C70.1561 53.9039 69.6143 52.5962 68.631 51.6147L64.2204 47.2041C63.6866 46.6694 63.3925 45.9597 63.3925 45.2057V38.5045C63.3925 37.7608 63.6941 37.0325 64.22 36.5071L67.6816 33.0455C72.4155 37.463 75.2409 43.5224 75.5825 49.9765C75.7045 52.3109 75.5025 54.6616 74.9752 56.9392C74.8281 57.574 74.6559 58.2023 74.46 58.8236C74.1328 59.8582 73.7391 60.8634 73.2849 61.8356L70.984 59.5343ZM44.5217 75.5173C44.854 75.1873 45.2952 75.0063 45.7634 75.0063H47.6915C48.7992 75.0063 49.8407 74.5748 50.624 73.7911C50.9572 73.4579 51.4003 73.2745 51.8717 73.2745H55.2086C55.6795 73.2745 56.1226 73.4579 56.4558 73.7911L57.8725 75.2073C56.3809 75.6592 54.8321 75.9757 53.2381 76.1409C51.6008 76.3094 49.9473 76.3173 48.3087 76.166C47.0279 76.0473 45.763 75.8305 44.5217 75.5173Z" fill="#1d1ce5"/>
<path d="M25.0922 61.0776C25.2737 61.5518 25.726 61.8431 26.2054 61.8431C26.3469 61.8431 26.4907 61.818 26.6308 61.764C27.2456 61.529 27.5527 60.8402 27.3177 60.2254C26.2282 57.3805 25.6758 54.3782 25.6758 51.3024C25.6758 46.1603 27.2237 41.25 30.097 37.1084V41.6521C30.097 42.587 30.461 43.4662 31.1223 44.1275L33.675 46.6802C33.8862 46.8915 34.0026 47.1721 34.0026 47.4704V49.627C34.0026 50.5625 34.3665 51.4416 35.0274 52.102L38.2125 55.2876C38.4238 55.4989 38.5402 55.7791 38.5402 56.0769V66.7819C38.5402 67.9281 39.2248 68.9525 40.284 69.3909C40.6354 69.5365 41.0035 69.6073 41.3679 69.6073C42.1014 69.6073 42.8204 69.3206 43.3616 68.7789C43.6279 68.5131 43.8345 68.2032 43.9736 67.8639C44.1165 67.5195 44.1891 67.1556 44.1891 66.7814V63.8429C44.1891 63.7252 44.2357 63.6135 44.318 63.5306L54.2463 53.6033C54.9067 52.9416 55.2701 52.0629 55.2701 51.1289V46.4079C55.2701 45.4739 54.9067 44.5952 54.2453 43.9325L49.987 39.6751C49.3257 39.0137 48.4461 38.6493 47.5116 38.6493H37.9724C37.3558 38.6493 36.8541 38.1486 36.8541 37.5324C36.8541 37.2341 36.9704 36.9534 37.1817 36.7422C37.393 36.5309 37.6736 36.4145 37.9724 36.4145H38.6821C39.6171 36.4145 40.4962 36.0501 41.1575 35.3888L44.2259 32.3205C44.8872 31.6591 45.2516 30.78 45.2516 29.845V26.9177C46.9103 26.5538 48.6169 26.356 50.3523 26.336C51.0104 26.3281 51.5372 25.7887 51.5298 25.1306C51.5223 24.4725 50.9834 23.9485 50.3244 23.9532C45.2134 24.0127 40.3259 25.4685 36.1006 28.1305C34.8943 28.8896 33.7466 29.744 32.6734 30.6823C31.8804 31.3748 31.1232 32.1152 30.407 32.9022C30.3981 32.912 30.3902 32.9231 30.3814 32.9329C25.8024 37.9741 23.293 44.4509 23.293 51.3024C23.293 54.6705 23.8984 57.9594 25.0922 61.0776ZM42.8688 27.5669V29.8455C42.8688 30.1396 42.7492 30.4277 42.5412 30.6357L39.4724 33.7045C39.2611 33.9154 38.9804 34.0322 38.6821 34.0322H37.9719C37.037 34.0322 36.1578 34.3961 35.4965 35.0574C34.8352 35.7188 34.4712 36.5979 34.4712 37.5329C34.4712 39.4624 36.0415 41.0326 37.9719 41.0326H47.5111C47.8099 41.0326 48.0905 41.149 48.3018 41.3603L52.5592 45.6167C52.7677 45.8252 52.8868 46.1138 52.8868 46.4084V51.1293C52.8868 51.4234 52.7677 51.712 52.5606 51.9196L42.6319 61.8473C42.0995 62.3816 41.8058 63.0904 41.8058 63.8429V66.7819C41.8058 66.8401 41.7947 66.8968 41.7705 66.955C41.7495 67.0057 41.7183 67.0527 41.6765 67.0942C41.4954 67.2757 41.2972 67.2319 41.1957 67.1896C41.0938 67.1477 40.923 67.0383 40.923 66.7819V56.0774C40.923 55.1429 40.5586 54.2642 39.8973 53.6029L36.7121 50.4173C36.5013 50.2069 36.3854 49.9263 36.3854 49.627V47.4709C36.3854 46.5359 36.021 45.6568 35.3601 44.9954L32.807 42.4428C32.599 42.2343 32.4794 41.9462 32.4794 41.6521V34.1723C33.7373 32.8403 35.1391 31.6447 36.6544 30.6153C37.0737 30.3304 37.5014 30.0596 37.9375 29.8008C39.4905 28.8812 41.1422 28.1315 42.8688 27.5669Z" fill="#1d1ce5"/>
<path d="M54.4371 26.5073C54.8541 26.7856 55.4121 26.7694 55.8133 26.4696C56.2089 26.1741 56.3829 25.6436 56.2377 25.1707C56.0953 24.7063 55.6788 24.3712 55.1948 24.3302C54.6908 24.2879 54.2082 24.5811 54.0067 25.0432C53.7809 25.5612 53.962 26.1965 54.4371 26.5073Z" fill="#1d1ce5"/>
<path d="M29.9572 70.6575C30.1536 71.129 30.6408 71.4291 31.1509 71.3886C31.6335 71.35 32.0514 71.0135 32.1948 70.5519C32.3432 70.073 32.1669 69.5354 31.7606 69.2404C31.371 68.9579 30.8377 68.9374 30.4281 69.1901C29.9367 69.4936 29.7394 70.1256 29.9572 70.6575Z" fill="#1d1ce5"/>
</svg>
