
<svg width="120" height="120" viewBox="0 0 120 120" fill="none" xmlns="http://www.w3.org/2000/svg">
<circle cx="60" cy="60" r="60" fill="#6FCF97" fill-opacity="0.05"/>
<path d="M82.0667 38.9332C76.306 33.1726 68.6468 30 60.5 30C52.353 30 44.6937 33.1726 38.9332 38.9332C33.1725 44.6939 30 52.3532 30 60.5C30 68.6468 33.1725 76.306 38.9332 82.0667C44.6939 87.8274 52.353 91 60.5 91C68.6468 91 76.306 87.8274 82.0667 82.0667C87.8274 76.306 91 68.6468 91 60.5C91 52.3532 87.8274 44.694 82.0667 38.9332ZM60.5 87.4258C45.6531 87.4258 33.5742 75.3469 33.5742 60.5C33.5742 45.6531 45.6531 33.5742 60.5 33.5742C75.3469 33.5742 87.4258 45.6531 87.4258 60.5C87.4258 75.3469 75.3469 87.4258 60.5 87.4258Z" fill="#6FCF97"/>
<path d="M75.0708 50.7147C74.373 50.017 73.2414 50.017 72.5436 50.7148L56.7624 66.496L48.4551 58.1887C47.7573 57.4909 46.6257 57.4909 45.9277 58.1887C45.2298 58.8865 45.2298 60.0181 45.9277 60.716L55.4987 70.287C55.8476 70.6359 56.305 70.8103 56.7623 70.8103C57.2195 70.8103 57.677 70.6358 58.0259 70.287L75.0708 53.242C75.7688 52.5442 75.7688 51.4126 75.0708 50.7147Z" fill="#6FCF97"/>
</svg>
