
<svg width="120" height="120" viewBox="0 0 120 120" fill="none" xmlns="http://www.w3.org/2000/svg">
<circle cx="60" cy="60" r="60" fill="#1d1ce5" fill-opacity="0.05"/>
<g clip-path="url(#clip0)">
<path d="M41.457 51.8274C40.821 51.8274 40.3047 52.3432 40.3047 52.9793C40.3047 53.6153 40.821 54.1316 41.457 54.1316C42.0931 54.1316 42.6094 53.6153 42.6094 52.9793C42.6094 52.3432 42.0931 51.8274 41.457 51.8274Z" fill="#1d1ce5"/>
<path d="M73.7428 65.5958C73.5272 65.3798 73.2337 65.2582 72.928 65.2582C72.9163 65.2605 72.4734 65.2357 72.1133 65.5958L71.299 66.4101L68.6513 63.7629C74.4941 55.5727 73.6055 44.2748 66.4101 37.0798C58.305 28.9747 45.1854 28.9734 37.0793 37.0798C28.9742 45.1845 28.9729 58.3046 37.0793 66.4106C44.2567 73.5884 55.5502 74.5094 63.762 68.6518L66.4096 71.2995L65.5954 72.1138C65.1457 72.5635 65.1452 73.2936 65.5954 73.7437L80.1635 88.3105C82.4146 90.563 86.0585 90.5643 88.31 88.311C90.5625 86.0603 90.5634 82.416 88.31 80.1644L73.7428 65.5958ZM68.0391 69.67L65.5719 67.2028C65.8587 66.9458 66.1391 66.682 66.4101 66.4106C66.6815 66.1396 66.9453 65.8592 67.2023 65.5729L69.6695 68.0401L68.0391 69.67ZM38.7088 64.7811C31.504 57.5767 31.5031 45.9146 38.7088 38.7093C45.9132 31.5045 57.5753 31.5036 64.7806 38.7093C71.9693 45.8975 72.0057 57.5569 64.7806 64.7811C57.474 72.0886 45.8151 71.8878 38.7088 64.7811ZM72.928 68.0401L76.1866 71.299L71.2986 76.187L68.0396 72.9285L72.928 68.0401ZM86.6805 86.6815C85.3301 88.0332 83.1447 88.0337 81.7934 86.6815L72.928 77.8165L77.8161 72.9285L86.681 81.7944C88.0323 83.1443 88.0337 85.3297 86.6805 86.6815Z" fill="#1d1ce5"/>
<path d="M63.1515 40.3396C56.8501 34.0382 46.6415 34.0346 40.3374 40.3387C34.049 46.6284 34.049 56.8627 40.3374 63.1529C46.6424 69.4574 56.8451 69.4579 63.1506 63.1529C69.4404 56.8627 69.4408 46.6289 63.1515 40.3396ZM61.5211 61.5229C56.1173 66.9268 47.3721 66.9281 41.9669 61.5234C36.577 56.1317 36.577 47.3594 41.9669 41.9677C47.368 36.567 56.1191 36.5657 61.522 41.9691C66.9129 47.3599 66.9124 56.1317 61.5211 61.5229Z" fill="#1d1ce5"/>
<path d="M51.7452 40.2241C48.6654 40.2241 45.7719 41.4224 43.5978 43.5979C42.3374 44.8583 41.4097 46.3473 40.8407 48.0245C40.6363 48.6268 40.9586 49.2813 41.5614 49.4856C42.165 49.6904 42.8186 49.3663 43.023 48.765C43.4771 47.4258 44.219 46.2357 45.2273 45.2269C46.9666 43.4871 49.2812 42.5288 51.7452 42.5288C52.3817 42.5288 52.8976 42.013 52.8976 41.3765C52.8976 40.74 52.3817 40.2241 51.7452 40.2241Z" fill="#1d1ce5"/>
</g>
<defs>
<clipPath id="clip0">
<rect width="59" height="59" fill="white" transform="translate(31 31)"/>
</clipPath>
</defs>
</svg>
