
<svg width="106" height="100" viewBox="0 0 106 100" fill="none" xmlns="http://www.w3.org/2000/svg">
<circle cx="56" cy="50" r="50" fill="#FEFAF4"/>
<circle cx="50" cy="50" r="49.5" stroke="#EF991F"/>
<g clip-path="url(#clip0)">
<path d="M51.2364 48.5352C50.8546 48.1732 50.2364 48.1732 49.8546 48.5352C49.4738 48.8964 49.4738 49.4825 49.8546 49.8446C50.2364 50.2057 50.8546 50.2057 51.2364 49.8446C51.6173 49.4825 51.6173 48.8964 51.2364 48.5352Z" fill="#EF991F"/>
<path d="M63.6652 36.7477C61.757 34.9383 58.668 34.9382 56.7597 36.7477C54.8565 38.5524 54.8564 41.4897 56.76 43.2958C58.6639 45.1001 61.7615 45.1008 63.6652 43.2956C65.5732 41.4864 65.5736 38.5572 63.6652 36.7477ZM62.2842 41.986C61.1423 43.0689 59.2835 43.0689 58.141 41.9862C56.9989 40.9026 56.9989 39.14 58.1408 38.0572C59.2857 36.9717 61.1392 36.9715 62.2842 38.0572C63.429 39.1427 63.4292 40.9003 62.2842 41.986Z" fill="#EF991F"/>
<path d="M74.7137 26.2712C74.5219 26.0895 74.2602 25.9909 73.9882 26.0007C73.7674 26.0082 68.51 26.2085 62.2605 28.3031C57.2527 29.9797 53.0786 32.3802 49.8541 35.4379C49.1316 36.123 48.4284 36.8496 47.7557 37.6044C44.5674 35.8248 42.0125 36.3828 40.3974 37.2024C36.6786 39.0896 34.3767 44.2138 34.3767 47.8789C34.377 48.2534 34.615 48.5911 34.9798 48.7344C35.1006 48.7819 35.2276 48.8049 35.3534 48.8049C35.6076 48.8049 35.8573 48.7107 36.0441 48.5337C38.0053 46.674 40.4244 46.7903 41.2146 46.8888L41.5566 47.2131C40.8835 48.7318 40.3413 50.2419 39.9437 51.7106C39.8001 52.2422 39.8486 52.8046 40.062 53.3191C39.1217 53.73 38.2146 54.3333 37.4248 55.0822C34.911 57.466 34.4005 63.2752 34.38 63.5213C34.3576 63.7914 34.4609 64.0574 34.6629 64.249C34.8468 64.4233 35.0956 64.5202 35.3534 64.5202C35.379 64.5202 35.4046 64.5193 35.4303 64.5173C35.6899 64.498 41.8164 64.014 44.3302 61.6303C45.1198 60.8816 45.7559 60.0216 46.1892 59.1302C46.7636 59.3444 47.3548 59.3708 47.8864 59.2416C49.4347 58.8646 51.0271 58.3507 52.6288 57.7124L52.9708 58.0367C53.0746 58.7861 53.1973 61.0799 51.2362 62.9394C50.957 63.2043 50.8734 63.6025 51.0245 63.9485C51.1756 64.2945 51.5317 64.5201 51.9267 64.5201C55.7919 64.5201 61.1957 62.3374 63.1859 58.8111C64.0503 57.2798 64.6388 54.8571 62.762 51.8338C63.5576 51.1962 64.3239 50.5294 65.0468 49.844C68.2714 46.7863 70.8028 42.8283 72.571 38.0801C74.78 32.1538 74.9912 27.1685 74.9991 26.9593C75.0089 26.7023 74.9054 26.4531 74.7137 26.2712ZM36.5601 45.8872C37.1667 43.1033 38.9288 40.0485 41.3194 38.8352C42.9169 38.0246 44.6631 38.1041 46.5198 39.0678C44.938 41.0403 43.5629 43.1655 42.4167 45.4097C42.4022 45.4012 42.2264 45.1916 41.8998 45.1218C41.7656 45.093 39.1817 44.566 36.5601 45.8872ZM42.9492 60.3207C41.6064 61.5939 38.4565 62.2655 36.4656 62.5397C36.7548 60.6517 37.4631 57.665 38.8058 56.3918C39.5578 55.6788 40.4296 55.1382 41.306 54.8337L44.5923 57.9499C44.2712 58.7809 43.7012 59.6076 42.9492 60.3207ZM47.4013 57.4475C47.1187 57.5162 46.7913 57.4154 46.548 57.185C45.2846 55.987 44.7904 55.5184 44.6353 55.3714C44.3509 55.1018 43.6535 54.4405 42.1132 52.9798C41.8697 52.7484 41.7634 52.4381 41.8356 52.1706C42.1484 51.0155 42.5575 49.8304 43.0549 48.6339L51.1306 56.2915C49.8686 56.7633 48.619 57.1511 47.4013 57.4475ZM61.4642 57.9372C60.1847 60.204 56.9632 61.8749 54.0275 62.45C54.9635 60.7798 55.1698 58.6536 54.8278 57.3643C54.7484 57.0648 54.5424 56.9143 54.5309 56.8966C56.8974 55.8097 59.1385 54.5058 61.2189 53.0059C62.2353 54.7667 62.3189 56.4226 61.4642 57.9372ZM63.6659 48.5344C62.7859 49.3688 61.8384 50.1749 60.8495 50.9302C58.4724 52.7452 55.856 54.2825 53.0646 55.5064L43.8829 46.8002C45.1736 44.1531 46.7949 41.6722 48.7087 39.4183C49.506 38.48 50.356 37.5814 51.2356 36.7475C54.1286 34.0041 57.8624 31.8207 62.3362 30.2491L70.519 38.0083C68.8618 42.2504 66.5593 45.7909 63.6659 48.5344ZM71.2217 36.0553L64.3959 29.5828C68.1147 28.4875 71.35 28.0774 72.9648 27.93C72.8093 29.4615 72.3766 32.5293 71.2217 36.0553Z" fill="#EF991F"/>
<path d="M48.4737 64.2496C48.0921 63.888 47.4738 63.8882 47.0925 64.2498L44.3308 66.8695C43.9495 67.2312 43.9496 67.8175 44.331 68.1791C44.7125 68.5406 45.3309 68.5406 45.7121 68.1789L48.4739 65.5592C48.8551 65.1975 48.855 64.6111 48.4737 64.2496Z" fill="#EF991F"/>
<path d="M34.6634 51.1541C34.2822 50.7924 33.6639 50.7924 33.2824 51.1539L30.5197 53.7727C30.1382 54.1342 30.1381 54.7205 30.5194 55.0822C30.9005 55.4437 31.5188 55.4441 31.9004 55.0824L34.6631 52.4637C35.0446 52.1022 35.0447 51.5158 34.6634 51.1541Z" fill="#EF991F"/>
<path d="M41.5686 65.5583C41.1875 65.1967 40.569 65.1967 40.1876 65.5582L33.5724 71.8301C33.1909 72.1917 33.1909 72.7781 33.5723 73.1397C33.9534 73.5013 34.5719 73.5015 34.9533 73.1398L41.5685 66.8679C41.95 66.5063 41.95 65.9199 41.5686 65.5583Z" fill="#EF991F"/>
<path d="M33.7561 65.5583C33.3749 65.1967 32.7564 65.1967 32.3751 65.5582L25.7599 71.8301C25.3784 72.1917 25.3784 72.7781 25.7598 73.1397C26.1409 73.5013 26.7594 73.5015 27.1408 73.1398L33.756 66.8679C34.1375 66.5063 34.1375 65.9199 33.7561 65.5583Z" fill="#EF991F"/>
<path d="M33.2814 57.7008C32.9002 57.3393 32.2817 57.3393 31.9004 57.7009L25.2861 63.9737C24.9048 64.3354 24.9048 64.9216 25.2862 65.2833C25.6676 65.6449 26.2859 65.6449 26.6673 65.2832L33.2815 59.0105C33.6629 58.6488 33.6629 58.0625 33.2814 57.7008Z" fill="#EF991F"/>
<path d="M55.3792 44.6052C54.9977 44.2436 54.3796 44.2436 53.998 44.6052L52.6172 45.9146C52.2358 46.2762 52.2358 46.8625 52.6172 47.2242C52.9986 47.5858 53.6169 47.5858 53.9983 47.2242L55.3792 45.9148C55.7605 45.5532 55.7605 44.9669 55.3792 44.6052Z" fill="#EF991F"/>
</g>
<defs>
<clipPath id="clip0">
<rect width="50" height="47.4117" fill="white" transform="translate(25 26)"/>
</clipPath>
</defs>
</svg>
