
<svg width="106" height="100" viewBox="0 0 106 100" fill="none" xmlns="http://www.w3.org/2000/svg">
<circle cx="56" cy="50" r="50" fill="#FEFAF4"/>
<circle cx="50" cy="50" r="49.5" stroke="#1d1ce5"/>
<path d="M40.9192 59.4844C40.45 59.4844 40.0696 59.8451 40.0696 60.29V63.7342C40.0696 64.1791 40.45 64.5398 40.9192 64.5398C41.3884 64.5398 41.7688 64.1791 41.7688 63.7342V60.29C41.7688 59.8451 41.3884 59.4844 40.9192 59.4844Z" fill="#1d1ce5"/>
<path d="M59.0806 59.4844C58.6114 59.4844 58.231 59.8451 58.231 60.29V63.7342C58.231 64.1791 58.6114 64.5398 59.0806 64.5398C59.5498 64.5398 59.9302 64.1791 59.9302 63.7342V60.29C59.9302 59.8451 59.5498 59.4844 59.0806 59.4844Z" fill="#1d1ce5"/>
<path d="M34.0344 42.3485C32.0615 41.4131 28.3625 41.4023 28.2059 41.4023C27.7368 41.4023 27.3566 41.7628 27.3564 42.2078C27.3563 42.6526 27.7365 43.0134 28.2057 43.0136C29.1616 43.0141 31.9353 43.1546 33.2745 43.7896C33.3965 43.8475 33.5261 43.8748 33.6537 43.8748C33.9654 43.8748 34.2655 43.7115 34.4143 43.4293C34.6242 43.0313 34.4541 42.5474 34.0344 42.3485Z" fill="#1d1ce5"/>
<path d="M25.4819 57.7617C25.0127 57.7617 24.6323 58.1224 24.6323 58.5673V63.7338C24.6323 64.1787 25.0127 64.5394 25.4819 64.5394C25.9511 64.5394 26.3315 64.1787 26.3315 63.7338V58.5673C26.3315 58.1225 25.9513 57.7617 25.4819 57.7617Z" fill="#1d1ce5"/>
<path d="M77.0243 54.752L73.5837 53.1209C73.5638 53.1115 73.5513 53.0924 73.5513 53.0713L73.5515 51.4316C74.9639 50.5094 75.9636 49.0516 76.2137 47.3406C76.849 46.2997 77.1838 45.1239 77.1838 43.9283C77.1838 41.6989 76.0516 39.7158 74.3043 38.4678C74.4067 38.1444 74.4596 37.8107 74.4596 37.4703C74.4596 35.3643 72.449 33.6509 69.9777 33.6509C67.5065 33.6509 65.4959 35.3643 65.4959 37.4703C65.4959 37.8112 65.5482 38.1449 65.6506 38.4681C64.6088 39.2123 63.7873 40.2186 63.2927 41.3819C63.0821 39.4195 62.8628 37.0996 62.6524 34.3973C62.3749 30.8317 61.0225 27.8206 58.7417 25.6896C56.4783 23.5748 53.4554 22.457 49.9999 22.457C46.5445 22.457 43.5216 23.5748 41.2584 25.6895C38.9776 27.8206 37.6252 30.8317 37.3477 34.3971C37.274 35.3438 37.1992 36.2411 37.1241 37.0951H29.1142C26.1422 37.0951 23.7242 39.3879 23.7242 42.2061V42.2541C23.7242 42.9105 23.8878 43.5677 24.1974 44.1548L24.6322 44.9796V46.2949C24.6322 48.3795 25.7155 50.2499 27.3564 51.3755V52.5391C27.3564 52.6883 27.2507 52.821 27.0995 52.8621L23.592 53.8124C22.0659 54.2257 21 55.5656 21 57.0707V63.7327C21 64.1777 21.3804 64.5384 21.8496 64.5384C22.3188 64.5384 22.6992 64.1777 22.6992 63.7327V57.0707C22.6992 56.2811 23.2584 55.5783 24.0588 55.3614L27.5664 54.4111C27.693 54.3769 27.8132 54.3303 27.9276 54.2751L30.0807 56.3168V63.7327C30.0807 64.1777 30.4611 64.5384 30.9303 64.5384C31.3995 64.5384 31.7799 64.1777 31.7799 63.7327V56.3168L33.9481 54.2609C34.2379 54.3957 34.5267 54.4741 34.7383 54.5314L35.5995 54.7647C34.4324 55.5517 33.7131 56.8352 33.7131 58.227V63.7325C33.7131 64.1775 34.0935 64.5382 34.5627 64.5382C35.0319 64.5382 35.4123 64.1775 35.4123 63.7325V58.227C35.4123 57.1827 36.0633 56.2353 37.0708 55.8133L41.9283 53.779C43.4505 56.6695 46.561 58.5108 50.0001 58.5108C53.452 58.5108 56.552 56.6735 58.0733 53.7796L62.9293 55.8133C63.9368 56.2353 64.5878 57.1827 64.5878 58.227V63.7325C64.5878 64.1775 64.9682 64.5382 65.4374 64.5382C65.9066 64.5382 66.287 64.1775 66.287 63.7325V58.227C66.287 57.1964 65.892 56.2256 65.214 55.4709L66.5289 54.8476L67.5159 55.737C68.2062 56.3591 69.0919 56.67 69.9778 56.67C70.8635 56.67 71.7496 56.3589 72.4397 55.737L73.4266 54.8477L76.2645 56.1931C76.9037 56.4961 77.3008 57.1054 77.3008 57.783V63.7326C77.3008 64.1776 77.6812 64.5383 78.1504 64.5383C78.6196 64.5383 79 64.1776 79 63.7326V57.783C78.9999 56.4912 78.2428 55.3298 77.0243 54.752ZM69.9776 35.2621C71.5119 35.2621 72.7603 36.2527 72.7603 37.4702C72.7603 37.5213 72.756 37.5718 72.7516 37.6223C71.8973 37.2831 70.9602 37.0951 69.9776 37.0951C68.9951 37.0951 68.0582 37.2831 67.204 37.6222C67.1996 37.5717 67.195 37.5213 67.195 37.4702C67.195 36.2527 68.4433 35.2621 69.9776 35.2621ZM30.9304 54.8439L28.9945 53.0082C29.0345 52.8569 29.0559 52.6996 29.0559 52.539V52.1991C29.5903 52.3655 30.154 52.4642 30.7373 52.4807C30.8027 52.4827 30.8677 52.4835 30.9328 52.4835C31.5772 52.4835 32.2062 52.3913 32.8048 52.2152V52.5386C32.8048 52.7134 32.8237 52.872 32.8574 53.0168L30.9304 54.8439ZM30.7883 50.87C28.3308 50.8003 26.3315 48.7478 26.3315 46.2949V44.7894C26.3315 44.6644 26.3008 44.5409 26.2417 44.4291L25.7171 43.4342C25.525 43.0696 25.4234 42.6617 25.4234 42.2541V42.2061C25.4234 40.2764 27.0791 38.7064 29.1142 38.7064H36.4374V42.0508C36.4374 42.5912 36.3027 43.1325 36.0477 43.6159L35.6189 44.429C35.5599 44.5409 35.5292 44.6642 35.5292 44.7893V46.5114C35.5292 47.7009 35.0333 48.8125 34.1327 49.6411C33.2325 50.4693 32.0441 50.9061 30.7883 50.87ZM37.8891 53.7093L35.2051 52.9822C34.5039 52.7922 34.504 52.7181 34.504 52.5389L34.5042 51.4289C34.7896 51.2415 35.0617 51.0317 35.3162 50.7974C35.4875 50.6398 35.647 50.474 35.7965 50.3021C35.933 50.5646 36.1423 50.794 36.4127 50.9599C37.0937 51.3781 38.3789 52.0728 40.2689 52.7125L37.8891 53.7093ZM49.9999 56.8996C47.2357 56.8996 44.7322 55.4345 43.4837 53.1277L44.7204 52.6098C45.6855 52.2055 46.3091 51.298 46.3091 50.2975V48.3644C47.4507 48.7994 48.6963 49.0392 49.9999 49.0392C51.3036 49.0392 52.5491 48.7994 53.6908 48.3644V50.2975C53.6908 51.298 54.3144 52.2056 55.2795 52.6098L56.516 53.1276C55.2684 55.437 52.7745 56.8996 49.9999 56.8996ZM57.3671 51.7226L55.966 51.1358C55.6161 50.9893 55.39 50.6601 55.39 50.2974V47.5277C58.1203 45.848 59.9304 42.9322 59.9304 39.6229V38.1123C59.9304 37.1305 59.4902 36.2043 58.7226 35.5714C57.0156 34.1636 53.1514 31.7069 46.4522 31.0716C45.9865 31.0274 45.569 31.3503 45.5223 31.7931C45.4756 32.2359 45.8162 32.6307 46.2832 32.6749C52.5142 33.2657 56.0528 35.505 57.6076 36.7873C58.0039 37.114 58.2312 37.5971 58.2312 38.1123V39.6229C58.2312 43.9265 54.5387 47.4279 50.0001 47.4279C45.4615 47.4279 41.7689 43.9265 41.7689 39.6229V38.9489C41.7689 38.6394 41.95 38.3558 42.2531 38.1902C43.3153 37.6103 44.7162 36.5359 45.3577 34.7112C45.5061 34.2892 45.2655 33.8329 44.8203 33.6922C44.3753 33.5515 43.894 33.7796 43.7456 34.2018C43.273 35.5462 42.212 36.3534 41.4052 36.7939C40.5814 37.2437 40.0696 38.0695 40.0696 38.949V39.623C40.0696 42.9324 41.8796 45.8481 44.61 47.5278V50.2975C44.61 50.6602 44.3839 50.9893 44.034 51.1359L42.6328 51.7227C39.8964 51.0285 38.143 50.1029 37.3361 49.6076C37.3201 49.5977 37.311 49.5864 37.3155 49.5609C37.6119 47.8999 38.3733 43.1085 39.0424 34.5158C39.2891 31.3454 40.4678 28.6901 42.451 26.8372C44.3898 25.0258 47.0001 24.0683 49.9999 24.0683C52.9997 24.0683 55.6101 25.0258 57.5489 26.8372C59.5321 28.6901 60.7108 31.3453 60.9576 34.5157C61.6265 43.1081 62.388 47.8996 62.6845 49.5608C62.689 49.5864 62.6799 49.5977 62.6637 49.6076C61.8557 50.1035 60.1023 51.0286 57.3671 51.7226ZM66.4038 53.0712C66.4038 53.0924 66.3915 53.1114 66.3715 53.1208L63.7097 54.3829C63.6781 54.3688 63.6477 54.353 63.6158 54.3396L59.7312 52.7128C61.6203 52.0732 62.9053 51.3789 63.5872 50.9601C64.1731 50.6004 64.4765 49.9458 64.3599 49.2922C64.3536 49.2564 64.3466 49.2172 64.3399 49.1785C64.8177 50.0896 65.5321 50.8625 66.4038 51.4316V53.0712ZM71.2688 54.5691C70.5448 55.2218 69.4104 55.2217 68.6862 54.5691L67.8965 53.8576C68.0298 53.6209 68.1029 53.3523 68.1029 53.0712V52.2139C68.6963 52.3885 69.3257 52.4834 69.9775 52.4834C70.6292 52.4834 71.2587 52.3885 71.852 52.2139L71.8519 53.071C71.8519 53.3523 71.925 53.6209 72.0584 53.8577L71.2688 54.5691ZM69.9776 50.8721C67.6252 50.8721 65.6605 49.2017 65.4075 46.9867C65.3939 46.868 65.3528 46.7537 65.2869 46.6519C64.7529 45.8272 64.4707 44.8854 64.4707 43.9281C64.4707 41.0489 66.941 38.7064 69.9776 38.7064C73.0141 38.7064 75.4846 41.0489 75.4846 43.9282C75.4846 44.4832 75.3891 45.033 75.2052 45.5578C72.7928 43.2339 68.5489 42.3231 68.3443 42.2803C68.0931 42.2278 67.83 42.2863 67.6293 42.4391C67.4287 42.5921 67.3119 42.823 67.3119 43.0671C67.3119 43.0723 67.2732 43.6312 66.6527 44.2195C66.3209 44.5342 66.3209 45.0443 66.6527 45.3588C66.9845 45.6734 67.5225 45.6734 67.8542 45.3588C68.332 44.9057 68.6127 44.4459 68.7774 44.0576C70.207 44.4603 73.1742 45.4773 74.5058 47.2624C74.1279 49.3387 72.2311 50.8721 69.9776 50.8721Z" fill="#1d1ce5"/>
<path d="M74.5181 58.8262C74.0489 58.8262 73.6685 59.1869 73.6685 59.6318V63.7337C73.6685 64.1786 74.0489 64.5393 74.5181 64.5393C74.9873 64.5393 75.3677 64.1786 75.3677 63.7337V59.6318C75.3677 59.1869 74.9873 58.8262 74.5181 58.8262Z" fill="#1d1ce5"/>
</svg>
