
<svg width="120" height="120" viewBox="0 0 120 120" fill="none" xmlns="http://www.w3.org/2000/svg">
<circle cx="60" cy="60" r="60" fill="#1d1ce5" fill-opacity="0.05"/>
<path d="M69.3745 48.8467C69.2365 48.4225 68.8696 48.1135 68.4283 48.0494L63.3302 47.3099L61.0492 42.6911C60.8516 42.2912 60.4444 42.0381 59.9985 42.0381H59.9982C59.5521 42.0382 59.1449 42.2916 58.9475 42.6916L56.669 47.3117L51.5713 48.0538C51.1299 48.118 50.7633 48.4274 50.6256 48.8516C50.4879 49.2759 50.603 49.7416 50.9225 50.0528L54.6123 53.6476L53.7428 58.725C53.6675 59.1647 53.8484 59.6089 54.2094 59.8711C54.4135 60.0193 54.6551 60.0947 54.898 60.0947C55.0845 60.0947 55.2719 60.0501 55.4435 59.9599L60.0024 57.5615L64.5627 59.9575C64.9575 60.165 65.436 60.1303 65.7968 59.8679C66.1576 59.6057 66.3382 59.1613 66.2628 58.7217L65.3906 53.6448L69.0786 50.0481C69.3977 49.7366 69.5124 49.2709 69.3745 48.8467ZM63.313 52.3971C63.0369 52.6664 62.9109 53.0542 62.9762 53.4344L63.5507 56.7784L60.547 55.2003C60.2057 55.0209 59.7977 55.021 59.4564 55.2005L56.4535 56.7802L57.0262 53.4359C57.0914 53.0558 56.9652 52.6679 56.689 52.3987L54.2587 50.031L57.6163 49.5422C57.9979 49.4867 58.3278 49.2468 58.4985 48.901L59.9992 45.8581L61.5016 48.9003C61.6725 49.2461 62.0025 49.4857 62.3842 49.5411L65.742 50.0281L63.313 52.3971Z" fill="#1d1ce5"/>
<path d="M86.3365 81.4886L76.6502 64.6405C79.5753 60.9891 81.3279 56.3598 81.3279 51.3282C81.3279 39.5678 71.76 30 59.9996 30C48.2392 30 38.6714 39.5678 38.6714 51.3282C38.6714 56.3598 40.4238 60.9891 43.349 64.6405L33.6627 81.4886C33.4403 81.8756 33.457 82.3553 33.7058 82.726C33.9545 83.0966 34.3927 83.2937 34.8346 83.2343L42.3948 82.2191L45.2957 89.2739C45.4656 89.687 45.8556 89.9677 46.3014 89.9974C46.3276 89.9992 46.3538 90 46.3798 90C46.7964 90 47.1841 89.7782 47.3944 89.4141L57.1729 72.4772C57.1744 72.4746 57.1755 72.4719 57.177 72.4692C58.1009 72.5919 59.0429 72.6564 59.9998 72.6564C60.9568 72.6564 61.8988 72.5919 62.8227 72.4692C62.8242 72.4718 62.8253 72.4745 62.8268 72.4772L72.6053 89.4141C72.8155 89.7782 73.2034 90 73.6199 90C73.6459 90 73.6721 89.9992 73.6983 89.9974C74.1441 89.9677 74.5341 89.687 74.704 89.2739L77.605 82.2191L85.1652 83.2343C85.608 83.2937 86.0453 83.0966 86.2941 82.726C86.5421 82.3553 86.5589 81.8756 86.3365 81.4886ZM46.5565 86.1776L44.4448 81.0421L46.3398 77.9497C46.678 77.3978 46.5048 76.6763 45.953 76.3382C45.4011 76.0001 44.6796 76.1732 44.3415 76.725L42.4265 79.85L36.88 80.5947L44.9984 66.474C47.6576 69.108 51.004 71.049 54.7418 72.0001L46.5565 86.1776ZM59.9995 70.3127C49.5314 70.3127 41.015 61.7963 41.015 51.3282C41.015 40.8602 49.5314 32.3438 59.9995 32.3438C70.4676 32.3438 78.984 40.8602 78.984 51.3282C78.984 61.7963 70.4676 70.3127 59.9995 70.3127ZM77.5726 79.85L75.6576 76.725C75.3195 76.1732 74.598 75.9999 74.0461 76.3382C73.4943 76.6764 73.3211 77.3978 73.6593 77.9497L75.5543 81.0421L73.4426 86.1776L65.2573 72.0001C68.9951 71.049 72.3416 69.108 75.0008 66.474L83.1191 80.5947L77.5726 79.85Z" fill="#1d1ce5"/>
<path d="M59.9994 36.0938C57.3842 36.0938 54.8041 36.7678 52.5378 38.0433C51.9738 38.3606 51.7739 39.0753 52.0912 39.6393C52.4085 40.2033 53.1232 40.4035 53.6872 40.0859C55.6033 39.0075 57.7861 38.4375 59.9994 38.4375C67.1073 38.4375 72.8901 44.2203 72.8901 51.3282C72.8901 53.2705 72.4693 55.1367 71.6394 56.875C71.3606 57.459 71.608 58.1585 72.192 58.4374C72.355 58.5152 72.5268 58.552 72.6962 58.552C73.1335 58.552 73.5534 58.3058 73.7545 57.8848C74.7361 55.8287 75.2339 53.6228 75.2339 51.3282C75.2339 42.9279 68.3998 36.0938 59.9994 36.0938Z" fill="#1d1ce5"/>
<path d="M70.9042 60.2838C70.4397 59.8331 69.6978 59.8442 69.2471 60.3086L69.2211 60.3353C68.769 60.7983 68.7778 61.5404 69.2408 61.9925C69.4687 62.215 69.7642 62.3259 70.0594 62.3259C70.3639 62.3259 70.6684 62.2079 70.898 61.9727L70.9289 61.9409C71.3797 61.4765 71.3686 60.7346 70.9042 60.2838Z" fill="#1d1ce5"/>
<path d="M67.8036 63.0874C67.4913 62.5206 66.7786 62.3142 66.2118 62.6267C64.3214 63.6683 62.1735 64.2189 60.0002 64.2189C52.8923 64.2189 47.1095 58.4361 47.1095 51.3282C47.1095 49.4662 47.4975 47.6704 48.2626 45.9907C48.531 45.4017 48.271 44.7068 47.682 44.4385C47.093 44.1702 46.3981 44.4301 46.1297 45.0191C45.2245 47.0059 44.7656 49.1286 44.7656 51.3282C44.7656 59.7285 51.5998 66.5627 60.0001 66.5627C62.5678 66.5627 65.1069 65.9114 67.3429 64.6793C67.9097 64.3669 68.1161 63.6543 67.8036 63.0874Z" fill="#1d1ce5"/>
<path d="M50.5076 40.8869C50.034 40.4457 49.2925 40.4722 48.8514 40.9456L48.8253 40.9736C48.3859 41.4487 48.4146 42.1901 48.8897 42.6296C49.115 42.8382 49.4004 42.9413 49.6852 42.9413C50.0004 42.9413 50.3147 42.8149 50.5457 42.5653L50.5663 42.5431C51.0074 42.0696 50.9811 41.328 50.5076 40.8869Z" fill="#6FCF97"/>
</svg>
