
<svg width="106" height="100" viewBox="0 0 106 100" fill="none" xmlns="http://www.w3.org/2000/svg">
<circle cx="56" cy="50" r="50" fill="#FEFAF4"/>
<circle cx="50" cy="50" r="49.5" stroke="#EF991F"/>
<g clip-path="url(#clip0)">
<path d="M67.1332 48.5334C67.4225 48.5324 67.6841 48.3615 67.8013 48.097L67.8064 48.0853L70.7339 41.4985C70.7766 41.4047 70.799 41.3031 70.7999 41.2V28.7334C70.8047 28.3333 70.4844 28.0049 70.0842 28.0001C70.0784 28 70.0724 28 70.0665 28.0001H56.8666C56.5873 27.9985 56.3314 28.1558 56.2066 28.4056L53.2732 34.2723H53.2806C53.228 34.3735 53.2004 34.4859 53.1999 34.6001V40.4667H48.7999V28.7334C48.8048 28.3333 48.4844 28.0049 48.0843 28.0001C48.0784 28 48.0724 28 48.0666 28.0001H34.8666C34.5887 28 34.3345 28.157 34.2103 28.4056L31.277 34.2723H31.2843C31.2304 34.3733 31.2015 34.4857 31.2 34.6001V47.8C31.2 48.205 31.5283 48.5334 31.9333 48.5334H37.7999V51.4667H34.8666C34.5887 51.4666 34.3345 51.6236 34.2103 51.8722L31.277 57.7389H31.2843C31.2304 57.8399 31.2015 57.9523 31.2 58.0667V71.2666C31.2 71.6716 31.5283 72 31.9333 72H45.1333C45.4226 71.9991 45.6842 71.8281 45.8013 71.5636L45.8065 71.5519L48.5432 65.4H53.1999V71.2666C53.1999 71.6716 53.5283 72 53.9332 72H67.1332C67.4225 71.9991 67.6841 71.8281 67.8013 71.5636L67.8064 71.5519L70.7339 64.9651C70.7766 64.8713 70.799 64.7697 70.7999 64.6667V52.2C70.8047 51.7999 70.4844 51.4715 70.0842 51.4667C70.0784 51.4666 70.0724 51.4666 70.0665 51.4667H61.2666V48.5334H67.1332ZM69.3332 41.0446L67.8665 44.3446V34.7731L69.3332 31.8398V41.0446ZM57.3198 29.4667H68.88L66.68 33.8667H55.1198L57.3198 29.4667ZM45.8666 40.4667V34.7731L47.3333 31.8398V40.4667H45.8666ZM46.938 41.9334L45.8666 44.3446V41.9334H46.938ZM35.3198 29.4667H46.8801L44.6801 33.8667H33.1198L35.3198 29.4667ZM32.6666 47.0667V35.3334H44.3999V40.4667H37.7999V41.9334H44.3999V47.0667H32.6666ZM35.3198 52.9334H37.7999V57.3333H33.1198L35.3198 52.9334ZM44.3999 70.5333H32.6666V58.8H37.7999V65.4H39.2666V58.8H44.3999V70.5333ZM44.6801 57.3333H39.2666V52.9334H46.8801L44.6801 57.3333ZM45.8666 67.8112V65.4H46.938L45.8666 67.8112ZM47.3333 63.9333H45.8666V58.2397L47.3333 55.3064V63.9333ZM53.2732 57.7389H53.2806C53.228 57.8402 53.2004 57.9525 53.1999 58.0667V63.9333H48.7999V52.2C48.8048 51.7999 48.4844 51.4715 48.0843 51.4667C48.0784 51.4666 48.0724 51.4666 48.0666 51.4667H39.2666V48.5334H45.1333C45.4226 48.5324 45.6842 48.3615 45.8013 48.097L45.8065 48.0853L48.5432 41.9334H53.1999V47.8C53.1999 48.205 53.5283 48.5334 53.9332 48.5334H59.7999V51.4667H56.8666C56.5873 51.4651 56.3314 51.6224 56.2066 51.8722L53.2732 57.7389ZM59.7999 52.9334V57.3333H55.1198L57.3198 52.9334H59.7999ZM66.3999 70.5333H54.6666V65.4H61.2666V63.9333H54.6666V58.8H66.3999V70.5333ZM69.3332 64.5112L67.8665 67.8112V58.2397L69.3332 55.3064V64.5112ZM68.88 52.9334L66.68 57.3333H61.2666V52.9334H68.88ZM59.7999 40.4667V47.0667H54.6666V35.3334H66.3999V47.0667H61.2666V40.4667H59.7999Z" fill="#EF991F"/>
</g>
<defs>
<clipPath id="clip0">
<rect width="44" height="44" fill="white" transform="translate(29 28)"/>
</clipPath>
</defs>
</svg>
